<mxfile host="65bd71144e" modified="2020-12-10T16:48:18.345Z" agent="5.0 (Macintosh; Intel Mac OS X 10_16_0) AppleWebKit/537.36 (KHTML, like Gecko) Code/1.51.1 Chrome/83.0.4103.122 Electron/9.3.3 Safari/537.36" version="13.10.0" etag="_R54-MJWLh3Iya_NDQPR" type="embed">
    <diagram id="hksw53_tMlPM6BykjMWk" name="Page-1">
        <mxGraphModel dx="1090" dy="556" grid="1" gridSize="10" guides="1" tooltips="1" connect="1" arrows="1" fold="1" page="1" pageScale="1" pageWidth="827" pageHeight="1169" math="0" shadow="0">
            <root>
                <mxCell id="0"/>
                <mxCell id="1" parent="0"/>
                <mxCell id="6" style="edgeStyle=orthogonalEdgeStyle;rounded=0;orthogonalLoop=1;jettySize=auto;html=1;entryX=0;entryY=0.5;entryDx=0;entryDy=0;strokeColor=#000000;" edge="1" parent="1" source="2" target="4">
                    <mxGeometry relative="1" as="geometry"/>
                </mxCell>
                <mxCell id="2" value="9092&lt;br&gt;kube-rbac-proxy" style="whiteSpace=wrap;html=1;aspect=fixed;shadow=1;fillColor=#008a00;strokeColor=#005700;fontColor=#ffffff;rounded=1;" vertex="1" parent="1">
                    <mxGeometry x="100" y="150" width="80" height="80" as="geometry"/>
                </mxCell>
                <mxCell id="8" style="edgeStyle=orthogonalEdgeStyle;orthogonalLoop=1;jettySize=auto;html=1;exitX=1;exitY=0.5;exitDx=0;exitDy=0;curved=1;strokeColor=#000000;" edge="1" parent="1" source="3">
                    <mxGeometry relative="1" as="geometry">
                        <mxPoint x="500" y="190" as="targetPoint"/>
                        <Array as="points">
                            <mxPoint x="180" y="250"/>
                            <mxPoint x="450" y="250"/>
                            <mxPoint x="450" y="190"/>
                        </Array>
                    </mxGeometry>
                </mxCell>
                <mxCell id="3" value="9091&lt;br&gt;oauth-proxy (sar get namespace)" style="whiteSpace=wrap;html=1;aspect=fixed;shadow=1;fillColor=#008a00;strokeColor=#005700;fontColor=#ffffff;rounded=1;" vertex="1" parent="1">
                    <mxGeometry x="100" y="260" width="80" height="80" as="geometry"/>
                </mxCell>
                <mxCell id="7" style="edgeStyle=orthogonalEdgeStyle;rounded=0;orthogonalLoop=1;jettySize=auto;html=1;exitX=1;exitY=0.5;exitDx=0;exitDy=0;strokeColor=#000000;" edge="1" parent="1" source="4" target="5">
                    <mxGeometry relative="1" as="geometry"/>
                </mxCell>
                <mxCell id="4" value="9095&lt;br&gt;prom-label-proxy" style="whiteSpace=wrap;html=1;aspect=fixed;shadow=1;fillColor=#008a00;strokeColor=#005700;fontColor=#ffffff;rounded=1;" vertex="1" parent="1">
                    <mxGeometry x="300" y="150" width="80" height="80" as="geometry"/>
                </mxCell>
                <mxCell id="5" value="9090&lt;br&gt;THANOS" style="whiteSpace=wrap;html=1;aspect=fixed;shadow=1;fillColor=#008a00;strokeColor=#005700;fontColor=#ffffff;rounded=1;" vertex="1" parent="1">
                    <mxGeometry x="500" y="150" width="80" height="80" as="geometry"/>
                </mxCell>
            </root>
        </mxGraphModel>
    </diagram>
</mxfile>